<?xml version="1.0" standalone="no"?>
<!DOCTYPE svg PUBLIC "-//W3C//DTD SVG 20010904//EN"
 "http://www.w3.org/TR/2001/REC-SVG-20010904/DTD/svg10.dtd">
<svg version="1.0" xmlns="http://www.w3.org/2000/svg"
 width="500.000000pt" height="500.000000pt" viewBox="0 0 500.000000 500.000000"
 preserveAspectRatio="xMidYMid meet">
<metadata>
Created by potrace 1.14, written by Peter Selinger 2001-2017
</metadata>
<g transform="translate(0.000000,500.000000) scale(0.100000,-0.100000)"
fill="#000000" stroke="none">
<path d="M0 2500 l0 -2500 2500 0 2500 0 0 2500 0 2500 -2500 0 -2500 0 0
-2500z m2549 1423 l30 -38 1 38 c0 30 4 37 20 37 18 0 20 -7 20 -75 0 -67 -2
-75 -19 -75 -10 0 -31 18 -47 42 l-29 42 -3 -37 c-3 -29 -7 -37 -23 -37 -17 0
-19 7 -19 70 0 62 2 70 19 70 10 0 33 -17 50 -37z m-245 19 c7 -12 -10 -35
-22 -28 -12 7 -42 -3 -42 -14 0 -4 18 -10 39 -14 64 -10 67 -66 6 -86 -39 -13
-75 -6 -75 16 0 10 12 14 40 14 52 0 51 14 -2 26 -36 7 -43 13 -46 36 -2 18 4
31 20 42 24 17 73 22 82 8z m-164 -37 c0 -8 -3 -15 -7 -15 -28 -1 -33 -17 -19
-65 16 -51 14 -65 -10 -65 -16 0 -18 4 -34 66 -9 37 -13 41 -35 36 -18 -3 -25
0 -25 11 0 11 15 20 43 27 23 6 47 13 52 15 22 8 35 4 35 -10z m761 -1 c17 -8
28 -21 26 -27 -4 -12 -12 -12 -59 -1 -23 5 -29 2 -39 -20 -15 -33 2 -56 42
-56 32 0 48 -18 28 -31 -25 -16 -57 -10 -88 17 -47 39 -40 93 14 122 27 15 41
15 76 -4z m-958 -65 c24 -11 47 -47 47 -73 0 -24 -40 -64 -71 -71 -85 -19
-129 97 -52 139 34 18 45 19 76 5z m1131 5 c13 -5 16 -22 16 -84 0 -73 -1 -78
-20 -73 -11 3 -20 13 -20 23 0 24 -49 41 -72 26 -13 -8 -21 -7 -30 2 -10 10
-2 22 42 62 59 53 60 53 84 44z m174 -85 c29 -16 51 -36 49 -42 -5 -12 -11
-13 -37 -3 -10 4 -22 -8 -39 -39 -23 -44 -43 -56 -56 -35 -4 6 6 31 20 57 22
37 25 47 14 54 -8 5 -17 9 -21 9 -4 0 -5 7 -2 15 8 20 11 20 72 -16z m-1484
-30 c71 -56 -13 -173 -93 -128 -55 31 -50 106 9 136 35 18 53 16 84 -8z m1646
-75 c24 -21 28 -29 19 -40 -10 -12 -15 -12 -31 6 -36 38 -51 22 -18 -20 25
-32 25 -43 0 -65 -17 -15 -23 -16 -50 -5 -40 16 -63 49 -49 66 8 10 16 7 33
-13 30 -35 55 -27 27 9 -24 29 -27 58 -9 76 19 19 44 14 78 -14z m-1835 -51
c5 -13 17 -23 27 -23 19 0 33 -33 21 -53 -16 -28 -85 -80 -91 -70 -4 5 -25 31
-47 58 l-39 47 39 34 c45 38 75 40 90 7z m2231 -487 c58 -114 118 -293 140
-421 25 -151 24 -381 -4 -520 -52 -264 -154 -477 -329 -687 -75 -90 -143 -152
-196 -179 -57 -30 -81 -8 -26 23 41 24 29 41 -16 22 -32 -13 -36 -13 -55 6
-11 11 -20 25 -20 31 0 13 55 69 69 69 24 0 22 -24 -3 -42 -34 -26 -23 -42 15
-22 43 22 101 76 173 163 157 189 256 393 308 634 28 132 30 366 4 507 -24
129 -76 287 -131 394 -27 53 -42 93 -36 99 11 11 102 -172 136 -275 54 -163
68 -259 69 -458 1 -160 -2 -199 -22 -290 -60 -267 -181 -495 -364 -686 -55
-57 -76 -86 -72 -98 3 -9 10 -16 14 -16 15 0 154 156 213 237 114 160 200 358
244 563 27 128 25 439 -5 572 -30 137 -65 237 -128 362 -29 59 -51 113 -48
118 8 13 14 4 70 -106z m-2576 94 c0 -5 -22 -53 -49 -107 -61 -120 -114 -277
-137 -403 -21 -118 -21 -348 0 -481 43 -263 173 -542 340 -725 38 -42 46 -47
59 -35 15 12 10 20 -40 80 -161 188 -276 433 -317 670 -11 63 -16 153 -16 270
0 191 15 287 65 438 35 103 113 265 126 261 15 -5 13 -10 -26 -88 -96 -190
-135 -348 -142 -570 -6 -185 7 -299 52 -455 50 -171 173 -397 285 -517 46 -51
49 -52 67 -36 18 17 21 16 56 -20 41 -42 49 -81 17 -89 -11 -3 -20 -13 -20
-23 0 -10 -11 -25 -24 -34 -24 -15 -26 -14 -113 77 -153 161 -268 351 -338
559 -54 164 -70 266 -70 478 0 205 16 307 77 479 52 149 148 324 148 271z
m475 -135 c43 -17 53 -40 30 -65 -17 -19 -18 -19 -43 0 -33 26 -65 25 -97 -3
-38 -32 -38 -92 0 -124 31 -27 55 -29 97 -7 30 15 32 15 45 -2 19 -26 17 -32
-19 -55 -47 -29 -137 -23 -174 12 -41 38 -57 77 -51 127 11 102 114 159 212
117z m298 1 c56 -24 80 -59 85 -125 4 -58 3 -61 -36 -102 -37 -40 -43 -43
-103 -47 -55 -3 -69 0 -99 20 -94 63 -89 196 9 248 43 23 99 25 144 6z m357
-16 l0 -30 -70 0 -70 0 0 -35 0 -35 65 0 c63 0 65 -1 65 -25 0 -24 -2 -25 -65
-25 l-65 0 0 -55 0 -55 -40 0 -40 0 0 138 c0 76 3 142 7 145 3 4 53 7 110 7
l103 0 0 -30z m110 -115 l0 -145 -35 0 -35 0 0 145 0 145 35 0 35 0 0 -145z
m280 115 l0 -30 -71 0 -70 0 3 -32 c3 -33 3 -33 66 -36 58 -3 62 -4 62 -27 0
-23 -4 -24 -62 -27 l-63 -3 -3 -52 -3 -53 -35 0 -34 0 0 145 0 145 105 0 105
0 0 -30z m120 -115 l0 -145 -35 0 -35 0 0 145 0 145 35 0 35 0 0 -145z m298
113 l3 -28 -81 0 -81 0 3 -27 c3 -27 5 -28 71 -31 63 -3 67 -4 67 -27 0 -23
-4 -24 -67 -27 -66 -3 -68 -4 -71 -30 l-3 -28 80 0 81 0 0 -30 0 -30 -115 0
-115 0 0 145 0 146 113 -3 112 -3 3 -27z m252 14 c19 -9 41 -28 48 -42 17 -33
8 -87 -19 -116 l-22 -23 26 -41 c15 -22 27 -42 27 -45 0 -3 -18 -5 -40 -5 -36
0 -41 3 -60 40 -17 33 -26 40 -50 40 -28 0 -30 -2 -30 -40 0 -39 -1 -40 -35
-40 l-35 0 0 145 0 145 78 0 c53 0 88 -5 112 -18z m-986 -446 c44 -18 50 -30
30 -61 -15 -23 -18 -24 -34 -10 -9 8 -30 18 -48 21 -26 5 -36 1 -62 -24 -39
-39 -39 -74 -1 -113 33 -32 65 -37 99 -13 21 15 25 15 43 -2 10 -9 19 -21 19
-26 0 -18 -66 -48 -108 -48 -91 0 -152 57 -152 142 0 108 111 177 214 134z
m281 0 c39 -17 39 -16 24 -50 -11 -23 -13 -23 -45 -10 -48 20 -84 18 -84 -4 0
-13 18 -25 62 -43 69 -26 90 -54 81 -102 -12 -62 -115 -86 -201 -47 -40 18
-41 20 -30 45 13 28 23 30 58 10 29 -17 86 -20 95 -5 11 17 -11 36 -57 49 -58
17 -88 47 -88 86 0 31 27 66 60 78 29 11 91 7 125 -7z m-725 -166 c0 -19 -7
-20 -135 -20 -128 0 -135 1 -135 20 0 19 7 20 135 20 128 0 135 -1 135 -20z
m1270 0 c0 -19 -7 -20 -135 -20 -128 0 -135 1 -135 20 0 19 7 20 135 20 128 0
135 -1 135 -20z m-1245 -284 c33 -14 34 -16 23 -41 -10 -22 -16 -25 -37 -20
-58 15 -89 16 -96 6 -11 -18 11 -37 57 -50 91 -27 117 -95 57 -145 -36 -30
-107 -35 -163 -12 -43 18 -49 29 -35 59 l11 25 32 -19 c17 -10 48 -19 69 -19
34 0 38 3 35 21 -2 16 -18 27 -63 43 -40 14 -64 29 -74 47 -45 81 75 150 184
105z m278 -48 c14 -35 41 -100 61 -145 l35 -83 -40 0 c-33 0 -41 4 -49 25 -9
23 -14 25 -75 25 -61 0 -65 -2 -71 -25 -5 -21 -12 -25 -46 -25 -28 0 -39 4
-35 13 3 6 31 72 62 145 l57 132 38 0 c37 0 38 -1 63 -62z m359 -77 c32 -74
58 -139 58 -143 0 -4 -16 -8 -35 -8 -28 0 -38 5 -47 25 -10 23 -17 25 -75 25
-59 0 -64 -2 -73 -25 -8 -20 -16 -25 -45 -25 -19 0 -35 3 -35 6 0 3 21 54 46
113 26 58 53 121 61 139 12 30 17 33 51 30 l37 -3 57 -134z m295 119 c109 -49
110 -198 3 -252 -25 -13 -59 -18 -117 -18 l-83 0 0 138 c0 76 3 142 7 145 15
15 148 6 190 -13z m203 -125 l0 -145 -35 0 -35 0 0 145 0 145 35 0 35 0 0
-145z m-1473 -657 c8 -9 -2 -29 -32 -70 -36 -50 -44 -56 -58 -45 -16 11 -13
18 24 70 43 60 50 65 66 45z m1580 -44 c2 -5 -10 -18 -27 -27 -38 -23 -29 -42
10 -22 36 19 40 19 40 0 0 -8 -9 -19 -20 -25 -11 -6 -20 -18 -20 -26 0 -14 5
-13 34 4 28 17 37 18 45 8 8 -10 -1 -21 -40 -45 -28 -17 -52 -30 -53 -29 -44
69 -65 105 -68 115 -2 7 15 24 37 37 40 25 56 28 62 10z m-1471 -25 c30 -17
54 -34 54 -39 0 -16 -21 -22 -36 -9 -17 14 -14 17 -48 -43 -24 -42 -30 -46
-46 -36 -10 7 -16 17 -13 23 4 5 17 27 31 49 19 31 21 40 10 47 -7 5 -16 9
-20 9 -8 0 1 30 9 30 3 0 30 -14 59 -31z m1361 -181 c-20 -13 -27 -9 -40 25
l-14 32 -7 -37 c-8 -42 -15 -45 -52 -22 -24 17 -24 17 -14 -10 14 -37 13 -46
-6 -46 -9 0 -26 25 -44 63 -24 52 -26 63 -13 70 9 6 28 0 53 -17 22 -14 42
-26 45 -26 3 0 5 18 5 39 0 24 7 46 17 57 17 16 19 14 49 -52 23 -49 29 -71
21 -76z m-1187 94 c19 -15 20 -20 7 -30 -11 -10 -17 -9 -27 3 -13 16 -40 21
-40 7 0 -5 11 -19 25 -32 27 -26 32 -49 13 -68 -18 -18 -49 -15 -86 8 -27 17
-32 23 -22 35 10 12 16 11 41 -7 41 -31 47 -15 10 27 -26 29 -29 39 -21 55 14
26 70 27 100 2z m933 -115 c42 -54 46 -62 30 -68 -10 -3 -25 -2 -34 4 -21 13
-69 1 -69 -17 0 -14 -29 -31 -37 -22 -3 2 1 38 7 80 12 71 17 80 50 84 3 1 27
-27 53 -61z m-714 6 c13 -27 25 -43 27 -38 1 6 5 22 8 38 4 18 13 27 26 27 24
0 24 5 4 -81 -18 -81 -34 -88 -64 -29 -23 45 -40 52 -40 16 0 -14 -4 -27 -9
-30 -14 -9 -40 4 -36 17 2 7 9 38 15 70 15 73 36 77 69 10z m515 1 c18 -17 21
-60 6 -69 -6 -4 -4 -16 6 -31 16 -23 16 -24 -9 -24 -14 0 -27 7 -31 15 -8 22
-36 18 -36 -5 0 -13 -7 -20 -19 -20 -14 0 -20 10 -25 38 -11 67 -7 100 12 105
38 10 81 6 96 -9z m-164 -9 c0 -11 -11 -15 -41 -15 -33 0 -40 -3 -37 -17 2
-12 14 -19 36 -21 46 -5 43 -32 -3 -32 -31 0 -35 -3 -35 -25 0 -18 -5 -25 -20
-25 -18 0 -20 7 -20 75 l0 75 60 0 c47 0 60 -3 60 -15z"/>
<path d="M1877 3803 c-11 -11 -8 -48 5 -61 32 -32 80 8 58 48 -10 19 -49 27
-63 13z"/>
<path d="M3031 3786 c-9 -10 -8 -15 4 -20 10 -4 15 1 15 14 0 24 -4 25 -19 6z"/>
<path d="M1680 3695 c-10 -12 -10 -21 -1 -41 15 -34 64 -31 69 4 7 44 -41 70
-68 37z"/>
<path d="M1511 3576 c-9 -10 -9 -16 -1 -21 13 -8 42 14 34 26 -8 13 -20 11
-33 -5z"/>
<path d="M1550 3535 c-19 -23 -1 -39 21 -19 10 9 19 21 19 26 0 13 -27 9 -40
-7z"/>
<path d="M1516 1472 c-3 -5 3 -17 14 -27 17 -15 20 -16 20 -3 0 19 -26 42 -34
30z"/>
<path d="M1475 1430 c-8 -13 12 -40 31 -40 20 0 17 14 -5 34 -13 12 -21 14
-26 6z"/>
<path d="M1903 3020 c-48 -19 -58 -95 -18 -135 39 -40 96 -32 120 16 22 42 18
67 -14 100 -30 30 -50 34 -88 19z"/>
<path d="M3300 2985 l0 -45 45 0 c43 0 65 16 65 49 0 22 -33 41 -71 41 l-39 0
0 -45z"/>
<path d="M2207 2064 c-9 -26 -15 -49 -13 -51 2 -2 20 -3 39 -1 l34 3 -21 48
-21 49 -18 -48z"/>
<path d="M2537 2069 c-22 -59 -22 -59 18 -59 40 0 41 7 16 64 l-17 39 -17 -44z"/>
<path d="M2830 2045 l0 -85 40 0 c62 0 87 33 81 105 -3 32 -47 65 -87 65 l-34
0 0 -85z"/>
<path d="M2830 1110 c0 -11 7 -20 15 -20 13 0 14 4 5 20 -6 11 -13 20 -15 20
-3 0 -5 -9 -5 -20z"/>
<path d="M2633 1103 c-7 -3 -13 -14 -13 -25 0 -14 6 -19 22 -16 13 2 24 10 26
19 3 18 -15 29 -35 22z"/>
</g>
</svg>
